<svg width="17" height="17" viewBox="0 0 17 17" fill="none" xmlns="http://www.w3.org/2000/svg">
<path fill-rule="evenodd" clip-rule="evenodd" d="M9.89633 1.41421C10.6774 0.633165 11.9437 0.633165 12.7248 1.41421L15.5532 4.24264C16.3342 5.02369 16.3342 6.29002 15.5532 7.07107L8.60476 14.0195C8.52246 14.1018 8.41404 14.1528 8.29817 14.1637L4.58247 14.5143C3.32207 14.6332 2.26968 13.566 2.40628 12.3074L2.80158 8.66504C2.81388 8.55174 2.86452 8.44603 2.94511 8.36544L9.89633 1.41421ZM10.6027 3.53631C10.9932 3.14579 11.6263 3.14579 12.0169 3.53631L13.4311 4.95053C13.8216 5.34105 13.8216 5.97422 13.4311 6.36474L12.7232 7.07263L9.89477 4.2442L10.6027 3.53631ZM8.47978 5.6592L4.9428 9.19617L4.52896 11.2615C4.3887 11.9614 5.00596 12.5787 5.70594 12.4384L7.77123 12.0246L11.3082 8.48762L8.47978 5.6592Z" fill="#F05D63"/>
</svg>
